Coordinates
version=1
nRows=19
nColumns=24
inDegrees=yes

Units are S.I. units (second, meters, Newtons, ...)
Angles are in degrees.

endheader
time	pelvis_tilt	pelvis_list	pelvis_rotation	pelvis_tx	pelvis_ty	pelvis_tz	hip_flexion_r	hip_adduction_r	hip_rotation_r	knee_angle_r	ankle_angle_r	subtalar_angle_r	mtp_angle_r	hip_flexion_l	hip_adduction_l	hip_rotation_l	knee_angle_l	ankle_angle_l	subtalar_angle_l	mtp_angle_l	lumbar_extension	lumbar_bending	lumbar_rotation
      1.38850000	      1.68798643	      0.67128038	     -2.91881231	      0.18763429	      1.02000682	      0.27945937	     13.94760995	     -5.73338373	     -6.47314918	    -67.44111775	     -0.48751685	    -10.72987562	     -3.95725036	      9.30407438	      2.00955148	     -7.69172128	    -11.93122388	     -0.59498280	    -14.61408727	     -4.66189183	    -12.43506901	     -3.15140057	      4.09289927
      1.39266667	      1.72768211	      0.50534840	     -2.64201626	      0.19242317	      1.02089676	      0.27854261	     14.39442233	     -5.57408645	     -6.79485262	    -67.12383373	     -0.29694115	    -10.70362514	     -4.02968081	      8.88884857	      1.92882645	     -7.43656433	    -11.78104698	     -0.39603561	    -14.43768148	     -4.67089604	    -12.54704860	     -2.89179096	      3.78171232
      1.39683333	      1.79441966	      0.34915762	     -2.39457649	      0.19718400	      1.02179423	      0.27770779	     14.80967261	     -5.41884027	     -7.09594342	    -66.75966431	     -0.07143637	    -10.69898285	     -4.10852201	      8.43404835	      1.84986762	     -7.21534975	    -11.60200233	     -0.26167247	    -14.32440898	     -4.68192887	    -12.68740422	     -2.64396618	      3.52068361
      1.40100000	      1.83380956	      0.20385777	     -2.16666961	      0.20194226	      1.02262460	      0.27691821	     15.24907132	     -5.27186492	     -7.38401036	    -66.34191377	      0.13380166	    -10.70033982	     -4.18337011	      8.00828590	      1.77246197	     -7.02548471	    -11.42179657	     -0.12826243	    -14.19529924	     -4.69181684	    -12.79469901	     -2.40907219	      3.30247227
      1.40516667	      1.88986567	      0.05121764	     -1.92915903	      0.20669675	      1.02346547	      0.27612123	     15.64834692	     -5.12442764	     -7.69450501	    -65.85194952	      0.33002841	    -10.69292625	     -4.25972718	      7.56498287	      1.68348273	     -6.83898068	    -11.23992773	      0.01081502	    -14.04463062	     -4.70019042	    -12.92000016	     -2.16424999	      3.06836098
      1.40933333	      1.96480338	     -0.09573873	     -1.68957389	      0.21146077	      1.02431690	      0.27531209	     16.00726257	     -4.99130949	     -8.01908345	    -65.29761910	      0.52224775	    -10.68393915	     -4.33939704	      7.09545485	      1.59964973	     -6.65448290	    -11.04359772	      0.13969221	    -13.90213385	     -4.70839898	    -13.06124797	     -1.91756582	      2.83252691
      1.41350000	      2.03265891	     -0.24891989	     -1.45348577	      0.21621779	      1.02513607	      0.27455175	     16.35729426	     -4.84636448	     -8.34580721	    -64.68110783	      0.70404237	    -10.67234352	     -4.41575321	      6.63382596	      1.50015423	     -6.47713133	    -10.84584920	      0.26455771	    -13.74662100	     -4.71465107	    -13.19669575	     -1.67371007	      2.60828216
      1.41766667	      2.12020260	     -0.40066852	     -1.21103646	      0.22098782	      1.02596725	      0.27375952	     16.66254566	     -4.71368727	     -8.69132935	    -63.99621076	      0.86941107	    -10.66525914	     -4.49336782	      6.14689358	      1.40160548	     -6.30116972	    -10.63927651	      0.39647051	    -13.58298691	     -4.72010086	    -13.34996514	     -1.42535086	      2.37208970
      1.42183333	      2.21970826	     -0.54698864	     -0.97561703	      0.22577572	      1.02679099	      0.27299670	     16.93489419	     -4.58730273	     -9.03999003	    -63.25057855	      1.03631755	    -10.65440424	     -4.56761992	      5.64358213	      1.30248371	     -6.14947636	    -10.42624425	      0.51764608	    -13.42497222	     -4.72402684	    -13.50522143	     -1.18367309	      2.15118905
      1.42600000	      2.33115283	     -0.69262502	     -0.72923469	      0.23052748	      1.02760550	      0.27224003	     17.17646313	     -4.46125515	     -9.39795504	    -62.44588168	      1.19069843	    -10.65450058	     -4.65152794	      5.12718757	      1.20147618	     -5.95944469	    -10.20340690	      0.64034754	    -13.26234525	     -4.72750470	    -13.69418340	     -0.95388627	      1.89758575
      1.43016667	      2.42586179	     -0.83173974	     -0.48809571	      0.23532101	      1.02836672	      0.27148823	     17.41491346	     -4.34586373	     -9.76390044	    -61.58292862	      1.33884833	    -10.64894398	     -4.73276549	      4.62725743	      1.10209618	     -5.80136848	     -9.98124032	      0.76296684	    -13.10473166	     -4.72923034	    -13.84536632	     -0.71859984	      1.67613308
      1.43433333	      2.58623249	     -0.96091093	     -0.23679119	      0.24010709	      1.02920480	      0.27071429	     17.55606491	     -4.24776601	    -10.14876742	    -60.65752003	      1.50417453	    -10.67221380	     -4.84384489	      4.04867492	      1.01321696	     -5.63366848	     -9.73458863	      0.85316610	    -12.97121677	     -4.73148647	    -14.07366611	     -0.48918431	      1.39868442
      1.43850000	      2.71832920	     -1.08722275	     -0.00187479	      0.24490029	      1.02995594	      0.27000703	     17.71472741	     -4.14331051	    -10.51678283	    -59.68210033	      1.64466462	    -10.66988986	     -4.94819713	      3.50444999	      0.91655230	     -5.49330323	     -9.49924526	      0.96854276	    -12.81066237	     -4.72934196	    -14.26476290	     -0.26956652	      1.18040890
      1.44266667	      2.79243254	     -1.21031628	      0.22057604	      0.24970775	      1.03057963	      0.26933482	     17.92252849	     -4.03764454	    -10.87405442	    -58.65826175	      1.75423714	    -10.64692405	     -5.02480044	      3.02838724	      0.81723904	     -5.36793335	     -9.28017929	      1.12068434	    -12.63183834	     -4.72448992	    -14.38583892	     -0.05940447	      1.00684621
      1.44683333	      2.93488313	     -1.33186904	      0.45149710	      0.25453225	      1.03128761	      0.26864802	     18.02446650	     -3.93618159	    -11.25000251	    -57.56531374	      1.87163262	    -10.64971166	     -5.10684700	      2.47018708	      0.71634705	     -5.24628510	     -9.03867182	      1.23491082	    -12.47024954	     -4.71745648	    -14.58182730	      0.15791309	      0.77187950
      1.45100000	      3.05630294	     -1.43131837	      0.67668745	      0.25934810	      1.03191716	      0.26798729	     18.13611838	     -3.85568070	    -11.61924431	    -56.43316921	      1.99348731	    -10.64898445	     -5.19071913	      1.93540087	      0.63692775	     -5.11581887	     -8.79565698	      1.34752812	    -12.33307142	     -4.70792023	    -14.75357227	      0.34496775	      0.56040826
      1.45516667	      3.16344404	     -1.52916062	      0.90617325	      0.26418137	      1.03249022	      0.26731998	     18.23947650	     -3.77842513	    -12.00040219	    -55.24521497	      2.09881581	    -10.65517750	     -5.27459829	      1.42145459	      0.55468854	     -4.99674564	     -8.56406903	      1.47172920	    -12.18818737	     -4.69561629	    -14.90338900	      0.54002037	      0.34639533
      1.45933333	      3.28096951	     -1.61244418	      1.12461364	      0.26900499	      1.03303688	      0.26670537	     18.31574963	     -3.70668437	    -12.36539232	    -54.01224305	      2.21372419	    -10.66365533	     -5.36468819	      0.89094326	      0.48308359	     -4.87012729	     -8.32011983	      1.58270355	    -12.05567223	     -4.68108236	    -15.07040629	      0.70333014	      0.12823246
      1.46350000	      3.40372489	     -1.68494265	      1.33279854	      0.27382762	      1.03354530	      0.26611492	     18.36851465	     -3.64176007	    -12.72420546	    -52.73211413	      2.31305722	    -10.67259625	     -5.45483809	      0.35720195	      0.41864806	     -4.76319993	     -8.08195236	      1.70286981	    -11.92267940	     -4.66415092	    -15.24077925	      0.85745740	     -0.06618737
